<mxfile host="app.diagrams.net" modified="2023-08-15T03:53:15.581Z" agent="Mozilla/5.0 (Windows NT 10.0; Win64; x64) AppleWebKit/537.36 (KHTML, like Gecko) Chrome/115.0.0.0 Safari/537.36" etag="85fgH8CE4ibB0IxtT8zv" version="21.6.8" type="github">
  <diagram name="Página-1" id="GfPBfh-NymeW8RFI1vQj">
    <mxGraphModel dx="2020" dy="788" grid="1" gridSize="10" guides="1" tooltips="1" connect="1" arrows="1" fold="1" page="1" pageScale="1" pageWidth="827" pageHeight="1169" math="0" shadow="0">
      <root>
        <mxCell id="0" />
        <mxCell id="1" parent="0" />
        <mxCell id="IdiocYvt-IczOxANCRGV-16" value="" style="edgeStyle=orthogonalEdgeStyle;rounded=0;orthogonalLoop=1;jettySize=auto;html=1;" edge="1" parent="1" source="IdiocYvt-IczOxANCRGV-1" target="IdiocYvt-IczOxANCRGV-9">
          <mxGeometry relative="1" as="geometry" />
        </mxCell>
        <mxCell id="IdiocYvt-IczOxANCRGV-36" value="1" style="edgeLabel;html=1;align=center;verticalAlign=middle;resizable=0;points=[];" vertex="1" connectable="0" parent="IdiocYvt-IczOxANCRGV-16">
          <mxGeometry x="-0.6431" y="-2" relative="1" as="geometry">
            <mxPoint as="offset" />
          </mxGeometry>
        </mxCell>
        <mxCell id="IdiocYvt-IczOxANCRGV-37" value="N" style="edgeLabel;html=1;align=center;verticalAlign=middle;resizable=0;points=[];" vertex="1" connectable="0" parent="IdiocYvt-IczOxANCRGV-16">
          <mxGeometry x="0.4862" y="2" relative="1" as="geometry">
            <mxPoint as="offset" />
          </mxGeometry>
        </mxCell>
        <mxCell id="IdiocYvt-IczOxANCRGV-23" value="" style="edgeStyle=orthogonalEdgeStyle;rounded=0;orthogonalLoop=1;jettySize=auto;html=1;" edge="1" parent="1" source="IdiocYvt-IczOxANCRGV-1" target="IdiocYvt-IczOxANCRGV-11">
          <mxGeometry relative="1" as="geometry" />
        </mxCell>
        <mxCell id="IdiocYvt-IczOxANCRGV-38" value="1" style="edgeLabel;html=1;align=center;verticalAlign=middle;resizable=0;points=[];" vertex="1" connectable="0" parent="IdiocYvt-IczOxANCRGV-23">
          <mxGeometry x="-0.6191" y="-2" relative="1" as="geometry">
            <mxPoint as="offset" />
          </mxGeometry>
        </mxCell>
        <mxCell id="IdiocYvt-IczOxANCRGV-1" value="Proyecto" style="rounded=0;whiteSpace=wrap;html=1;" vertex="1" parent="1">
          <mxGeometry x="60" y="100" width="120" height="60" as="geometry" />
        </mxCell>
        <mxCell id="IdiocYvt-IczOxANCRGV-18" value="" style="edgeStyle=orthogonalEdgeStyle;rounded=0;orthogonalLoop=1;jettySize=auto;html=1;" edge="1" parent="1" source="IdiocYvt-IczOxANCRGV-2" target="IdiocYvt-IczOxANCRGV-10">
          <mxGeometry relative="1" as="geometry">
            <Array as="points">
              <mxPoint x="110" y="420" />
              <mxPoint x="110" y="420" />
            </Array>
          </mxGeometry>
        </mxCell>
        <mxCell id="IdiocYvt-IczOxANCRGV-33" value="*" style="edgeLabel;html=1;align=center;verticalAlign=middle;resizable=0;points=[];" vertex="1" connectable="0" parent="IdiocYvt-IczOxANCRGV-18">
          <mxGeometry x="-0.4" relative="1" as="geometry">
            <mxPoint as="offset" />
          </mxGeometry>
        </mxCell>
        <mxCell id="IdiocYvt-IczOxANCRGV-35" value="N" style="edgeLabel;html=1;align=center;verticalAlign=middle;resizable=0;points=[];" vertex="1" connectable="0" parent="IdiocYvt-IczOxANCRGV-18">
          <mxGeometry x="-0.5" y="-1" relative="1" as="geometry">
            <mxPoint as="offset" />
          </mxGeometry>
        </mxCell>
        <mxCell id="IdiocYvt-IczOxANCRGV-2" value="Usuario" style="rounded=0;whiteSpace=wrap;html=1;" vertex="1" parent="1">
          <mxGeometry x="50" y="350" width="120" height="60" as="geometry" />
        </mxCell>
        <mxCell id="IdiocYvt-IczOxANCRGV-3" value="Compañia" style="rounded=0;whiteSpace=wrap;html=1;" vertex="1" parent="1">
          <mxGeometry x="50" y="585" width="120" height="60" as="geometry" />
        </mxCell>
        <mxCell id="IdiocYvt-IczOxANCRGV-25" style="edgeStyle=orthogonalEdgeStyle;rounded=0;orthogonalLoop=1;jettySize=auto;html=1;" edge="1" parent="1" source="IdiocYvt-IczOxANCRGV-4" target="IdiocYvt-IczOxANCRGV-12">
          <mxGeometry relative="1" as="geometry" />
        </mxCell>
        <mxCell id="IdiocYvt-IczOxANCRGV-47" value="1" style="edgeLabel;html=1;align=center;verticalAlign=middle;resizable=0;points=[];" vertex="1" connectable="0" parent="IdiocYvt-IczOxANCRGV-25">
          <mxGeometry x="-0.2639" y="3" relative="1" as="geometry">
            <mxPoint as="offset" />
          </mxGeometry>
        </mxCell>
        <mxCell id="IdiocYvt-IczOxANCRGV-42" value="" style="edgeStyle=orthogonalEdgeStyle;rounded=0;orthogonalLoop=1;jettySize=auto;html=1;" edge="1" parent="1" source="IdiocYvt-IczOxANCRGV-4" target="IdiocYvt-IczOxANCRGV-41">
          <mxGeometry relative="1" as="geometry" />
        </mxCell>
        <mxCell id="IdiocYvt-IczOxANCRGV-45" value="1" style="edgeLabel;html=1;align=center;verticalAlign=middle;resizable=0;points=[];" vertex="1" connectable="0" parent="IdiocYvt-IczOxANCRGV-42">
          <mxGeometry x="-0.5952" y="2" relative="1" as="geometry">
            <mxPoint as="offset" />
          </mxGeometry>
        </mxCell>
        <mxCell id="IdiocYvt-IczOxANCRGV-4" value="Tarea" style="rounded=0;whiteSpace=wrap;html=1;" vertex="1" parent="1">
          <mxGeometry x="410" y="140" width="120" height="60" as="geometry" />
        </mxCell>
        <mxCell id="IdiocYvt-IczOxANCRGV-27" style="edgeStyle=orthogonalEdgeStyle;rounded=0;orthogonalLoop=1;jettySize=auto;html=1;" edge="1" parent="1" source="IdiocYvt-IczOxANCRGV-5" target="IdiocYvt-IczOxANCRGV-13">
          <mxGeometry relative="1" as="geometry" />
        </mxCell>
        <mxCell id="IdiocYvt-IczOxANCRGV-49" value="N" style="edgeLabel;html=1;align=center;verticalAlign=middle;resizable=0;points=[];" vertex="1" connectable="0" parent="IdiocYvt-IczOxANCRGV-27">
          <mxGeometry x="-0.4207" relative="1" as="geometry">
            <mxPoint as="offset" />
          </mxGeometry>
        </mxCell>
        <mxCell id="IdiocYvt-IczOxANCRGV-31" value="" style="edgeStyle=orthogonalEdgeStyle;rounded=0;orthogonalLoop=1;jettySize=auto;html=1;" edge="1" parent="1" source="IdiocYvt-IczOxANCRGV-5" target="IdiocYvt-IczOxANCRGV-14">
          <mxGeometry relative="1" as="geometry" />
        </mxCell>
        <mxCell id="IdiocYvt-IczOxANCRGV-51" value="N" style="edgeLabel;html=1;align=center;verticalAlign=middle;resizable=0;points=[];" vertex="1" connectable="0" parent="IdiocYvt-IczOxANCRGV-31">
          <mxGeometry x="-0.5241" y="-1" relative="1" as="geometry">
            <mxPoint as="offset" />
          </mxGeometry>
        </mxCell>
        <mxCell id="IdiocYvt-IczOxANCRGV-5" value="Elemento" style="rounded=0;whiteSpace=wrap;html=1;" vertex="1" parent="1">
          <mxGeometry x="480" y="360" width="120" height="60" as="geometry" />
        </mxCell>
        <mxCell id="IdiocYvt-IczOxANCRGV-6" value="Unidad" style="rounded=0;whiteSpace=wrap;html=1;" vertex="1" parent="1">
          <mxGeometry x="300" y="540" width="120" height="60" as="geometry" />
        </mxCell>
        <mxCell id="IdiocYvt-IczOxANCRGV-7" value="Recurso" style="rounded=0;whiteSpace=wrap;html=1;" vertex="1" parent="1">
          <mxGeometry x="510" y="600" width="120" height="60" as="geometry" />
        </mxCell>
        <mxCell id="IdiocYvt-IczOxANCRGV-29" style="edgeStyle=orthogonalEdgeStyle;rounded=0;orthogonalLoop=1;jettySize=auto;html=1;" edge="1" parent="1" source="IdiocYvt-IczOxANCRGV-8" target="IdiocYvt-IczOxANCRGV-15">
          <mxGeometry relative="1" as="geometry" />
        </mxCell>
        <mxCell id="IdiocYvt-IczOxANCRGV-53" value="1" style="edgeLabel;html=1;align=center;verticalAlign=middle;resizable=0;points=[];" vertex="1" connectable="0" parent="IdiocYvt-IczOxANCRGV-29">
          <mxGeometry x="-0.7086" y="-1" relative="1" as="geometry">
            <mxPoint as="offset" />
          </mxGeometry>
        </mxCell>
        <mxCell id="IdiocYvt-IczOxANCRGV-8" value="Categoria" style="rounded=0;whiteSpace=wrap;html=1;" vertex="1" parent="1">
          <mxGeometry x="710" y="555" width="120" height="60" as="geometry" />
        </mxCell>
        <mxCell id="IdiocYvt-IczOxANCRGV-22" value="" style="edgeStyle=orthogonalEdgeStyle;rounded=0;orthogonalLoop=1;jettySize=auto;html=1;" edge="1" parent="1" source="IdiocYvt-IczOxANCRGV-9" target="IdiocYvt-IczOxANCRGV-2">
          <mxGeometry relative="1" as="geometry" />
        </mxCell>
        <mxCell id="IdiocYvt-IczOxANCRGV-9" value="Tiene" style="rhombus;whiteSpace=wrap;html=1;" vertex="1" parent="1">
          <mxGeometry x="70" y="230" width="80" height="80" as="geometry" />
        </mxCell>
        <mxCell id="IdiocYvt-IczOxANCRGV-20" value="" style="edgeStyle=orthogonalEdgeStyle;rounded=0;orthogonalLoop=1;jettySize=auto;html=1;" edge="1" parent="1" source="IdiocYvt-IczOxANCRGV-10" target="IdiocYvt-IczOxANCRGV-3">
          <mxGeometry relative="1" as="geometry" />
        </mxCell>
        <mxCell id="IdiocYvt-IczOxANCRGV-34" value="1" style="edgeLabel;html=1;align=center;verticalAlign=middle;resizable=0;points=[];" vertex="1" connectable="0" parent="IdiocYvt-IczOxANCRGV-20">
          <mxGeometry x="-0.0753" y="3" relative="1" as="geometry">
            <mxPoint as="offset" />
          </mxGeometry>
        </mxCell>
        <mxCell id="IdiocYvt-IczOxANCRGV-10" value="Pertenece" style="rhombus;whiteSpace=wrap;html=1;" vertex="1" parent="1">
          <mxGeometry x="70" y="450" width="80" height="80" as="geometry" />
        </mxCell>
        <mxCell id="IdiocYvt-IczOxANCRGV-24" value="" style="edgeStyle=orthogonalEdgeStyle;rounded=0;orthogonalLoop=1;jettySize=auto;html=1;" edge="1" parent="1" source="IdiocYvt-IczOxANCRGV-11" target="IdiocYvt-IczOxANCRGV-4">
          <mxGeometry relative="1" as="geometry" />
        </mxCell>
        <mxCell id="IdiocYvt-IczOxANCRGV-39" value="n" style="edgeLabel;html=1;align=center;verticalAlign=middle;resizable=0;points=[];" vertex="1" connectable="0" parent="IdiocYvt-IczOxANCRGV-24">
          <mxGeometry x="0.4897" y="2" relative="1" as="geometry">
            <mxPoint as="offset" />
          </mxGeometry>
        </mxCell>
        <mxCell id="IdiocYvt-IczOxANCRGV-40" value="N" style="edgeLabel;html=1;align=center;verticalAlign=middle;resizable=0;points=[];" vertex="1" connectable="0" parent="IdiocYvt-IczOxANCRGV-24">
          <mxGeometry x="0.3862" y="-2" relative="1" as="geometry">
            <mxPoint x="5" y="-2" as="offset" />
          </mxGeometry>
        </mxCell>
        <mxCell id="IdiocYvt-IczOxANCRGV-11" value="Tiene" style="rhombus;whiteSpace=wrap;html=1;" vertex="1" parent="1">
          <mxGeometry x="260" y="140" width="80" height="80" as="geometry" />
        </mxCell>
        <mxCell id="IdiocYvt-IczOxANCRGV-26" value="" style="edgeStyle=orthogonalEdgeStyle;rounded=0;orthogonalLoop=1;jettySize=auto;html=1;" edge="1" parent="1" source="IdiocYvt-IczOxANCRGV-12" target="IdiocYvt-IczOxANCRGV-5">
          <mxGeometry relative="1" as="geometry" />
        </mxCell>
        <mxCell id="IdiocYvt-IczOxANCRGV-48" value="N" style="edgeLabel;html=1;align=center;verticalAlign=middle;resizable=0;points=[];" vertex="1" connectable="0" parent="IdiocYvt-IczOxANCRGV-26">
          <mxGeometry x="0.0095" y="2" relative="1" as="geometry">
            <mxPoint as="offset" />
          </mxGeometry>
        </mxCell>
        <mxCell id="IdiocYvt-IczOxANCRGV-12" value="Compone" style="rhombus;whiteSpace=wrap;html=1;" vertex="1" parent="1">
          <mxGeometry x="500" y="240" width="80" height="80" as="geometry" />
        </mxCell>
        <mxCell id="IdiocYvt-IczOxANCRGV-28" style="edgeStyle=orthogonalEdgeStyle;rounded=0;orthogonalLoop=1;jettySize=auto;html=1;" edge="1" parent="1" source="IdiocYvt-IczOxANCRGV-13" target="IdiocYvt-IczOxANCRGV-6">
          <mxGeometry relative="1" as="geometry" />
        </mxCell>
        <mxCell id="IdiocYvt-IczOxANCRGV-50" value="1" style="edgeLabel;html=1;align=center;verticalAlign=middle;resizable=0;points=[];" vertex="1" connectable="0" parent="IdiocYvt-IczOxANCRGV-28">
          <mxGeometry x="-0.1803" y="-2" relative="1" as="geometry">
            <mxPoint as="offset" />
          </mxGeometry>
        </mxCell>
        <mxCell id="IdiocYvt-IczOxANCRGV-13" value="Tiene" style="rhombus;whiteSpace=wrap;html=1;" vertex="1" parent="1">
          <mxGeometry x="350" y="420" width="80" height="80" as="geometry" />
        </mxCell>
        <mxCell id="IdiocYvt-IczOxANCRGV-32" value="" style="edgeStyle=orthogonalEdgeStyle;rounded=0;orthogonalLoop=1;jettySize=auto;html=1;" edge="1" parent="1" source="IdiocYvt-IczOxANCRGV-14" target="IdiocYvt-IczOxANCRGV-7">
          <mxGeometry relative="1" as="geometry" />
        </mxCell>
        <mxCell id="IdiocYvt-IczOxANCRGV-52" value="1" style="edgeLabel;html=1;align=center;verticalAlign=middle;resizable=0;points=[];" vertex="1" connectable="0" parent="IdiocYvt-IczOxANCRGV-32">
          <mxGeometry x="-0.3034" y="-1" relative="1" as="geometry">
            <mxPoint as="offset" />
          </mxGeometry>
        </mxCell>
        <mxCell id="IdiocYvt-IczOxANCRGV-14" value="Tiene" style="rhombus;whiteSpace=wrap;html=1;" vertex="1" parent="1">
          <mxGeometry x="520" y="475" width="80" height="80" as="geometry" />
        </mxCell>
        <mxCell id="IdiocYvt-IczOxANCRGV-30" value="" style="edgeStyle=orthogonalEdgeStyle;rounded=0;orthogonalLoop=1;jettySize=auto;html=1;" edge="1" parent="1" source="IdiocYvt-IczOxANCRGV-15" target="IdiocYvt-IczOxANCRGV-5">
          <mxGeometry relative="1" as="geometry" />
        </mxCell>
        <mxCell id="IdiocYvt-IczOxANCRGV-54" value="N" style="edgeLabel;html=1;align=center;verticalAlign=middle;resizable=0;points=[];" vertex="1" connectable="0" parent="IdiocYvt-IczOxANCRGV-30">
          <mxGeometry x="0.023" y="1" relative="1" as="geometry">
            <mxPoint as="offset" />
          </mxGeometry>
        </mxCell>
        <mxCell id="IdiocYvt-IczOxANCRGV-15" value="Clasifica" style="rhombus;whiteSpace=wrap;html=1;" vertex="1" parent="1">
          <mxGeometry x="730" y="410" width="80" height="80" as="geometry" />
        </mxCell>
        <mxCell id="IdiocYvt-IczOxANCRGV-43" style="edgeStyle=orthogonalEdgeStyle;rounded=0;orthogonalLoop=1;jettySize=auto;html=1;" edge="1" parent="1" source="IdiocYvt-IczOxANCRGV-41" target="IdiocYvt-IczOxANCRGV-4">
          <mxGeometry relative="1" as="geometry">
            <mxPoint x="560" y="70" as="targetPoint" />
            <Array as="points">
              <mxPoint x="630" y="70" />
              <mxPoint x="490" y="70" />
            </Array>
          </mxGeometry>
        </mxCell>
        <mxCell id="IdiocYvt-IczOxANCRGV-46" value="N" style="edgeLabel;html=1;align=center;verticalAlign=middle;resizable=0;points=[];" vertex="1" connectable="0" parent="IdiocYvt-IczOxANCRGV-43">
          <mxGeometry x="-0.8393" y="1" relative="1" as="geometry">
            <mxPoint as="offset" />
          </mxGeometry>
        </mxCell>
        <mxCell id="IdiocYvt-IczOxANCRGV-41" value="Tiene" style="rhombus;whiteSpace=wrap;html=1;" vertex="1" parent="1">
          <mxGeometry x="590" y="120" width="80" height="80" as="geometry" />
        </mxCell>
        <mxCell id="IdiocYvt-IczOxANCRGV-57" style="rounded=0;orthogonalLoop=1;jettySize=auto;html=1;endArrow=none;endFill=0;" edge="1" parent="1" source="IdiocYvt-IczOxANCRGV-55" target="IdiocYvt-IczOxANCRGV-8">
          <mxGeometry relative="1" as="geometry" />
        </mxCell>
        <mxCell id="IdiocYvt-IczOxANCRGV-55" value="id_Categoria" style="ellipse;whiteSpace=wrap;html=1;" vertex="1" parent="1">
          <mxGeometry x="680" y="665" width="100" height="20" as="geometry" />
        </mxCell>
        <mxCell id="IdiocYvt-IczOxANCRGV-58" style="rounded=0;orthogonalLoop=1;jettySize=auto;html=1;endArrow=none;endFill=0;" edge="1" parent="1" source="IdiocYvt-IczOxANCRGV-56" target="IdiocYvt-IczOxANCRGV-8">
          <mxGeometry relative="1" as="geometry" />
        </mxCell>
        <mxCell id="IdiocYvt-IczOxANCRGV-56" value="categoria_nombre" style="ellipse;whiteSpace=wrap;html=1;" vertex="1" parent="1">
          <mxGeometry x="800" y="665" width="110" height="20" as="geometry" />
        </mxCell>
        <mxCell id="IdiocYvt-IczOxANCRGV-61" style="rounded=0;orthogonalLoop=1;jettySize=auto;html=1;endArrow=none;endFill=0;" edge="1" parent="1" source="IdiocYvt-IczOxANCRGV-60" target="IdiocYvt-IczOxANCRGV-3">
          <mxGeometry relative="1" as="geometry" />
        </mxCell>
        <mxCell id="IdiocYvt-IczOxANCRGV-60" value="id_Compañia" style="ellipse;whiteSpace=wrap;html=1;" vertex="1" parent="1">
          <mxGeometry x="10" y="710" width="100" height="20" as="geometry" />
        </mxCell>
        <mxCell id="IdiocYvt-IczOxANCRGV-63" style="rounded=0;orthogonalLoop=1;jettySize=auto;html=1;endArrow=none;endFill=0;" edge="1" parent="1" source="IdiocYvt-IczOxANCRGV-62" target="IdiocYvt-IczOxANCRGV-3">
          <mxGeometry relative="1" as="geometry" />
        </mxCell>
        <mxCell id="IdiocYvt-IczOxANCRGV-62" value="nombre_cpa" style="ellipse;whiteSpace=wrap;html=1;" vertex="1" parent="1">
          <mxGeometry x="140" y="710" width="100" height="20" as="geometry" />
        </mxCell>
        <mxCell id="IdiocYvt-IczOxANCRGV-68" style="rounded=0;orthogonalLoop=1;jettySize=auto;html=1;endArrow=none;endFill=0;" edge="1" parent="1" source="IdiocYvt-IczOxANCRGV-64" target="IdiocYvt-IczOxANCRGV-5">
          <mxGeometry relative="1" as="geometry" />
        </mxCell>
        <mxCell id="IdiocYvt-IczOxANCRGV-64" value="id_elemento" style="ellipse;whiteSpace=wrap;html=1;" vertex="1" parent="1">
          <mxGeometry x="620" y="290" width="110" height="20" as="geometry" />
        </mxCell>
        <mxCell id="IdiocYvt-IczOxANCRGV-70" style="rounded=0;orthogonalLoop=1;jettySize=auto;html=1;endArrow=none;endFill=0;" edge="1" parent="1" source="IdiocYvt-IczOxANCRGV-65" target="IdiocYvt-IczOxANCRGV-5">
          <mxGeometry relative="1" as="geometry" />
        </mxCell>
        <mxCell id="IdiocYvt-IczOxANCRGV-65" value="unidad_elemento" style="ellipse;whiteSpace=wrap;html=1;" vertex="1" parent="1">
          <mxGeometry x="359" y="280" width="110" height="20" as="geometry" />
        </mxCell>
        <mxCell id="IdiocYvt-IczOxANCRGV-71" style="rounded=0;orthogonalLoop=1;jettySize=auto;html=1;endArrow=none;endFill=0;" edge="1" parent="1" source="IdiocYvt-IczOxANCRGV-66" target="IdiocYvt-IczOxANCRGV-5">
          <mxGeometry relative="1" as="geometry" />
        </mxCell>
        <mxCell id="IdiocYvt-IczOxANCRGV-66" value="tasa_elemento" style="ellipse;whiteSpace=wrap;html=1;" vertex="1" parent="1">
          <mxGeometry x="305" y="340" width="110" height="20" as="geometry" />
        </mxCell>
        <mxCell id="IdiocYvt-IczOxANCRGV-69" style="rounded=0;orthogonalLoop=1;jettySize=auto;html=1;endArrow=none;endFill=0;" edge="1" parent="1" source="IdiocYvt-IczOxANCRGV-67" target="IdiocYvt-IczOxANCRGV-5">
          <mxGeometry relative="1" as="geometry" />
        </mxCell>
        <mxCell id="IdiocYvt-IczOxANCRGV-67" value="elemento_nombre" style="ellipse;whiteSpace=wrap;html=1;" vertex="1" parent="1">
          <mxGeometry x="640" y="350" width="110" height="20" as="geometry" />
        </mxCell>
        <mxCell id="IdiocYvt-IczOxANCRGV-76" style="rounded=0;orthogonalLoop=1;jettySize=auto;html=1;endArrow=none;endFill=0;" edge="1" parent="1" source="IdiocYvt-IczOxANCRGV-72" target="IdiocYvt-IczOxANCRGV-5">
          <mxGeometry relative="1" as="geometry" />
        </mxCell>
        <mxCell id="IdiocYvt-IczOxANCRGV-72" value="id_categoria" style="ellipse;whiteSpace=wrap;html=1;" vertex="1" parent="1">
          <mxGeometry x="650" y="320" width="110" height="20" as="geometry" />
        </mxCell>
        <mxCell id="IdiocYvt-IczOxANCRGV-77" style="rounded=0;orthogonalLoop=1;jettySize=auto;html=1;endArrow=none;endFill=0;" edge="1" parent="1" source="IdiocYvt-IczOxANCRGV-73" target="IdiocYvt-IczOxANCRGV-5">
          <mxGeometry relative="1" as="geometry" />
        </mxCell>
        <mxCell id="IdiocYvt-IczOxANCRGV-73" value="id_recurso" style="ellipse;whiteSpace=wrap;html=1;" vertex="1" parent="1">
          <mxGeometry x="590" y="260" width="110" height="20" as="geometry" />
        </mxCell>
        <mxCell id="IdiocYvt-IczOxANCRGV-75" style="rounded=0;orthogonalLoop=1;jettySize=auto;html=1;endArrow=none;endFill=0;" edge="1" parent="1" source="IdiocYvt-IczOxANCRGV-74" target="IdiocYvt-IczOxANCRGV-5">
          <mxGeometry relative="1" as="geometry" />
        </mxCell>
        <mxCell id="IdiocYvt-IczOxANCRGV-74" value="id_unidad" style="ellipse;whiteSpace=wrap;html=1;" vertex="1" parent="1">
          <mxGeometry x="320" y="310" width="110" height="20" as="geometry" />
        </mxCell>
        <mxCell id="IdiocYvt-IczOxANCRGV-91" style="rounded=0;orthogonalLoop=1;jettySize=auto;html=1;endArrow=none;endFill=0;" edge="1" parent="1" source="IdiocYvt-IczOxANCRGV-78" target="IdiocYvt-IczOxANCRGV-1">
          <mxGeometry relative="1" as="geometry" />
        </mxCell>
        <mxCell id="IdiocYvt-IczOxANCRGV-78" value="total" style="ellipse;whiteSpace=wrap;html=1;" vertex="1" parent="1">
          <mxGeometry x="-100" y="70" width="110" height="20" as="geometry" />
        </mxCell>
        <mxCell id="IdiocYvt-IczOxANCRGV-93" style="rounded=0;orthogonalLoop=1;jettySize=auto;html=1;endArrow=none;endFill=0;" edge="1" parent="1" source="IdiocYvt-IczOxANCRGV-79" target="IdiocYvt-IczOxANCRGV-1">
          <mxGeometry relative="1" as="geometry" />
        </mxCell>
        <mxCell id="IdiocYvt-IczOxANCRGV-79" value="reserva_proyecto" style="ellipse;whiteSpace=wrap;html=1;" vertex="1" parent="1">
          <mxGeometry x="70" y="10" width="110" height="20" as="geometry" />
        </mxCell>
        <mxCell id="IdiocYvt-IczOxANCRGV-90" style="rounded=0;orthogonalLoop=1;jettySize=auto;html=1;endArrow=none;endFill=0;" edge="1" parent="1" source="IdiocYvt-IczOxANCRGV-80" target="IdiocYvt-IczOxANCRGV-1">
          <mxGeometry relative="1" as="geometry" />
        </mxCell>
        <mxCell id="IdiocYvt-IczOxANCRGV-80" value="fecha_finalizacion" style="ellipse;whiteSpace=wrap;html=1;" vertex="1" parent="1">
          <mxGeometry x="-110" y="110" width="110" height="20" as="geometry" />
        </mxCell>
        <mxCell id="IdiocYvt-IczOxANCRGV-88" style="rounded=0;orthogonalLoop=1;jettySize=auto;html=1;endArrow=none;endFill=0;" edge="1" parent="1" source="IdiocYvt-IczOxANCRGV-81" target="IdiocYvt-IczOxANCRGV-1">
          <mxGeometry relative="1" as="geometry" />
        </mxCell>
        <mxCell id="IdiocYvt-IczOxANCRGV-81" value="fecha_inicio" style="ellipse;whiteSpace=wrap;html=1;" vertex="1" parent="1">
          <mxGeometry x="-120" y="190" width="110" height="20" as="geometry" />
        </mxCell>
        <mxCell id="IdiocYvt-IczOxANCRGV-89" style="rounded=0;orthogonalLoop=1;jettySize=auto;html=1;endArrow=none;endFill=0;" edge="1" parent="1" source="IdiocYvt-IczOxANCRGV-82" target="IdiocYvt-IczOxANCRGV-1">
          <mxGeometry relative="1" as="geometry" />
        </mxCell>
        <mxCell id="IdiocYvt-IczOxANCRGV-82" value="presupuesto_total" style="ellipse;whiteSpace=wrap;html=1;" vertex="1" parent="1">
          <mxGeometry x="-110" y="160" width="110" height="20" as="geometry" />
        </mxCell>
        <mxCell id="IdiocYvt-IczOxANCRGV-92" style="rounded=0;orthogonalLoop=1;jettySize=auto;html=1;endArrow=none;endFill=0;" edge="1" parent="1" source="IdiocYvt-IczOxANCRGV-83" target="IdiocYvt-IczOxANCRGV-1">
          <mxGeometry relative="1" as="geometry" />
        </mxCell>
        <mxCell id="IdiocYvt-IczOxANCRGV-83" value="id_usuario" style="ellipse;whiteSpace=wrap;html=1;" vertex="1" parent="1">
          <mxGeometry x="-20" y="40" width="110" height="20" as="geometry" />
        </mxCell>
        <mxCell id="IdiocYvt-IczOxANCRGV-86" style="rounded=0;orthogonalLoop=1;jettySize=auto;html=1;endArrow=none;endFill=0;" edge="1" parent="1" source="IdiocYvt-IczOxANCRGV-84" target="IdiocYvt-IczOxANCRGV-1">
          <mxGeometry relative="1" as="geometry" />
        </mxCell>
        <mxCell id="IdiocYvt-IczOxANCRGV-84" value="id_proyecto" style="ellipse;whiteSpace=wrap;html=1;" vertex="1" parent="1">
          <mxGeometry x="-50" y="270" width="110" height="20" as="geometry" />
        </mxCell>
        <mxCell id="IdiocYvt-IczOxANCRGV-87" style="rounded=0;orthogonalLoop=1;jettySize=auto;html=1;endArrow=none;endFill=0;" edge="1" parent="1" source="IdiocYvt-IczOxANCRGV-85" target="IdiocYvt-IczOxANCRGV-1">
          <mxGeometry relative="1" as="geometry" />
        </mxCell>
        <mxCell id="IdiocYvt-IczOxANCRGV-85" value="nombre_proyecto" style="ellipse;whiteSpace=wrap;html=1;" vertex="1" parent="1">
          <mxGeometry x="-100" y="230" width="110" height="20" as="geometry" />
        </mxCell>
        <mxCell id="IdiocYvt-IczOxANCRGV-98" style="rounded=0;orthogonalLoop=1;jettySize=auto;html=1;endArrow=none;endFill=0;" edge="1" parent="1" source="IdiocYvt-IczOxANCRGV-94" target="IdiocYvt-IczOxANCRGV-7">
          <mxGeometry relative="1" as="geometry" />
        </mxCell>
        <mxCell id="IdiocYvt-IczOxANCRGV-94" value="rcs_nombre" style="ellipse;whiteSpace=wrap;html=1;" vertex="1" parent="1">
          <mxGeometry x="580" y="710" width="100" height="20" as="geometry" />
        </mxCell>
        <mxCell id="IdiocYvt-IczOxANCRGV-99" style="rounded=0;orthogonalLoop=1;jettySize=auto;html=1;endArrow=none;endFill=0;" edge="1" parent="1" source="IdiocYvt-IczOxANCRGV-95" target="IdiocYvt-IczOxANCRGV-7">
          <mxGeometry relative="1" as="geometry" />
        </mxCell>
        <mxCell id="IdiocYvt-IczOxANCRGV-95" value="id_Recurso" style="ellipse;whiteSpace=wrap;html=1;" vertex="1" parent="1">
          <mxGeometry x="469" y="710" width="100" height="20" as="geometry" />
        </mxCell>
        <mxCell id="IdiocYvt-IczOxANCRGV-101" style="rounded=0;orthogonalLoop=1;jettySize=auto;html=1;endArrow=none;endFill=0;" edge="1" parent="1" source="IdiocYvt-IczOxANCRGV-96" target="IdiocYvt-IczOxANCRGV-6">
          <mxGeometry relative="1" as="geometry" />
        </mxCell>
        <mxCell id="IdiocYvt-IczOxANCRGV-96" value="id_unidad" style="ellipse;whiteSpace=wrap;html=1;" vertex="1" parent="1">
          <mxGeometry x="230" y="630" width="100" height="20" as="geometry" />
        </mxCell>
        <mxCell id="IdiocYvt-IczOxANCRGV-100" style="rounded=0;orthogonalLoop=1;jettySize=auto;html=1;endArrow=none;endFill=0;" edge="1" parent="1" source="IdiocYvt-IczOxANCRGV-97" target="IdiocYvt-IczOxANCRGV-6">
          <mxGeometry relative="1" as="geometry" />
        </mxCell>
        <mxCell id="IdiocYvt-IczOxANCRGV-97" value="nombre_unidad" style="ellipse;whiteSpace=wrap;html=1;" vertex="1" parent="1">
          <mxGeometry x="350" y="645" width="100" height="20" as="geometry" />
        </mxCell>
        <mxCell id="IdiocYvt-IczOxANCRGV-108" style="rounded=0;orthogonalLoop=1;jettySize=auto;html=1;endArrow=none;endFill=0;" edge="1" parent="1" source="IdiocYvt-IczOxANCRGV-102" target="IdiocYvt-IczOxANCRGV-4">
          <mxGeometry relative="1" as="geometry" />
        </mxCell>
        <mxCell id="IdiocYvt-IczOxANCRGV-102" value="presupuesto_tarea" style="ellipse;whiteSpace=wrap;html=1;" vertex="1" parent="1">
          <mxGeometry x="300" y="40" width="110" height="20" as="geometry" />
        </mxCell>
        <mxCell id="IdiocYvt-IczOxANCRGV-109" style="rounded=0;orthogonalLoop=1;jettySize=auto;html=1;endArrow=none;endFill=0;" edge="1" parent="1" source="IdiocYvt-IczOxANCRGV-103" target="IdiocYvt-IczOxANCRGV-4">
          <mxGeometry relative="1" as="geometry" />
        </mxCell>
        <mxCell id="IdiocYvt-IczOxANCRGV-103" value="id_proyecto" style="ellipse;whiteSpace=wrap;html=1;" vertex="1" parent="1">
          <mxGeometry x="410" y="20" width="110" height="20" as="geometry" />
        </mxCell>
        <mxCell id="IdiocYvt-IczOxANCRGV-110" style="rounded=0;orthogonalLoop=1;jettySize=auto;html=1;endArrow=none;endFill=0;" edge="1" parent="1" source="IdiocYvt-IczOxANCRGV-104" target="IdiocYvt-IczOxANCRGV-4">
          <mxGeometry relative="1" as="geometry" />
        </mxCell>
        <mxCell id="IdiocYvt-IczOxANCRGV-104" value="id_padre" style="ellipse;whiteSpace=wrap;html=1;" vertex="1" parent="1">
          <mxGeometry x="540" y="10" width="110" height="20" as="geometry" />
        </mxCell>
        <mxCell id="IdiocYvt-IczOxANCRGV-111" style="rounded=0;orthogonalLoop=1;jettySize=auto;html=1;endArrow=none;endFill=0;" edge="1" parent="1" source="IdiocYvt-IczOxANCRGV-105" target="IdiocYvt-IczOxANCRGV-4">
          <mxGeometry relative="1" as="geometry" />
        </mxCell>
        <mxCell id="IdiocYvt-IczOxANCRGV-105" value="id_elemento" style="ellipse;whiteSpace=wrap;html=1;" vertex="1" parent="1">
          <mxGeometry x="630" y="30" width="110" height="20" as="geometry" />
        </mxCell>
        <mxCell id="IdiocYvt-IczOxANCRGV-107" style="rounded=0;orthogonalLoop=1;jettySize=auto;html=1;endArrow=none;endFill=0;" edge="1" parent="1" source="IdiocYvt-IczOxANCRGV-106" target="IdiocYvt-IczOxANCRGV-4">
          <mxGeometry relative="1" as="geometry" />
        </mxCell>
        <mxCell id="IdiocYvt-IczOxANCRGV-106" value="id_tarea" style="ellipse;whiteSpace=wrap;html=1;" vertex="1" parent="1">
          <mxGeometry x="280" y="80" width="110" height="20" as="geometry" />
        </mxCell>
        <mxCell id="IdiocYvt-IczOxANCRGV-121" style="rounded=0;orthogonalLoop=1;jettySize=auto;html=1;endArrow=none;endFill=0;" edge="1" parent="1" source="IdiocYvt-IczOxANCRGV-113" target="IdiocYvt-IczOxANCRGV-2">
          <mxGeometry relative="1" as="geometry" />
        </mxCell>
        <mxCell id="IdiocYvt-IczOxANCRGV-113" value="id_usuario" style="ellipse;whiteSpace=wrap;html=1;" vertex="1" parent="1">
          <mxGeometry x="-70" y="360" width="100" height="20" as="geometry" />
        </mxCell>
        <mxCell id="IdiocYvt-IczOxANCRGV-120" style="rounded=0;orthogonalLoop=1;jettySize=auto;html=1;endArrow=none;endFill=0;" edge="1" parent="1" source="IdiocYvt-IczOxANCRGV-114" target="IdiocYvt-IczOxANCRGV-2">
          <mxGeometry relative="1" as="geometry" />
        </mxCell>
        <mxCell id="IdiocYvt-IczOxANCRGV-114" value="nombre_usuario" style="ellipse;whiteSpace=wrap;html=1;" vertex="1" parent="1">
          <mxGeometry x="-80" y="410" width="100" height="20" as="geometry" />
        </mxCell>
        <mxCell id="IdiocYvt-IczOxANCRGV-118" value="" style="rounded=0;orthogonalLoop=1;jettySize=auto;html=1;endArrow=none;endFill=0;" edge="1" parent="1" source="IdiocYvt-IczOxANCRGV-115" target="IdiocYvt-IczOxANCRGV-2">
          <mxGeometry relative="1" as="geometry" />
        </mxCell>
        <mxCell id="IdiocYvt-IczOxANCRGV-115" value="id_empresa" style="ellipse;whiteSpace=wrap;html=1;" vertex="1" parent="1">
          <mxGeometry x="200" y="360" width="100" height="20" as="geometry" />
        </mxCell>
        <mxCell id="IdiocYvt-IczOxANCRGV-119" style="rounded=0;orthogonalLoop=1;jettySize=auto;html=1;endArrow=none;endFill=0;" edge="1" parent="1" source="IdiocYvt-IczOxANCRGV-116" target="IdiocYvt-IczOxANCRGV-2">
          <mxGeometry relative="1" as="geometry" />
        </mxCell>
        <mxCell id="IdiocYvt-IczOxANCRGV-116" value="rol" style="ellipse;whiteSpace=wrap;html=1;" vertex="1" parent="1">
          <mxGeometry x="190" y="410" width="100" height="20" as="geometry" />
        </mxCell>
      </root>
    </mxGraphModel>
  </diagram>
</mxfile>
